<svg width="35" height="21" viewBox="0 0 35 21" fill="none" xmlns="http://www.w3.org/2000/svg">
<path d="M31.8243 2.90983H21.8155V0.201904H31.8243V2.90983ZM34.2551 16.4495C33.6831 18.2096 31.3954 20.5114 26.9629 20.5114C22.5304 20.5114 18.9559 18.2096 18.9559 12.7938C18.9559 7.51331 22.2445 4.80538 26.8199 4.80538C31.2524 4.80538 33.9691 7.24251 34.541 10.7628C34.684 11.4398 34.684 12.3876 34.684 13.7415H23.2453C23.3883 18.0742 28.2498 18.2096 29.8226 16.4495H34.2551ZM23.2453 11.0336H30.3945C30.2515 9.00266 28.8217 8.05489 26.8199 8.05489C24.8182 8.05489 23.6743 9.00266 23.2453 11.0336ZM9.66195 20.5114H0.368042V0.201904H10.3769C18.2409 0.337301 18.3839 7.51331 14.2374 9.54425C19.0988 11.3044 19.2418 20.5114 9.66195 20.5114ZM4.65754 8.32568H9.80493C13.3795 8.32568 13.9514 4.26379 9.37598 4.26379H4.65754V8.32568ZM9.51896 12.3876H4.65754V16.4495H9.37598C13.8085 16.4495 13.5225 12.3876 9.51896 12.3876Z" fill="white"/>
</svg>
