<svg width="29" height="29" viewBox="0 0 29 29" fill="none" xmlns="http://www.w3.org/2000/svg">
<path d="M14.9284 2.63206C18.6635 2.63206 19.1303 2.63206 20.6477 2.7517C24.4995 2.87134 26.2503 4.78556 26.367 8.61401C26.4838 10.1693 26.4838 10.5282 26.4838 14.3567C26.4838 18.1851 26.4838 18.6637 26.367 20.0993C26.2503 23.9278 24.3828 25.842 20.6477 25.9617C19.1303 26.0813 18.7802 26.0813 14.9284 26.0813C11.1933 26.0813 10.7264 26.0813 9.32578 25.9617C5.47399 25.842 3.72318 23.9278 3.60646 20.0993C3.48974 18.544 3.48974 18.1851 3.48974 14.3567C3.48974 10.5282 3.48974 10.0497 3.60646 8.61401C3.72318 4.78556 5.59071 2.87134 9.32578 2.7517C10.7264 2.63206 11.1933 2.63206 14.9284 2.63206ZM14.9284 0C11.0766 0 10.6097 0 9.20906 0.119639C4.07334 0.358917 1.27204 3.23025 1.0386 8.49437C0.921875 9.93004 0.921875 10.4086 0.921875 14.3567C0.921875 18.3048 0.921875 18.7833 1.0386 20.219C1.27204 25.4831 4.07334 28.3544 9.20906 28.5937C10.6097 28.7134 11.0766 28.7134 14.9284 28.7134C18.7802 28.7134 19.2471 28.7134 20.6477 28.5937C25.7834 28.3544 28.5847 25.4831 28.8182 20.219C28.9349 18.7833 28.9349 18.3048 28.9349 14.3567C28.9349 10.4086 28.9349 9.93004 28.8182 8.49437C28.5847 3.23025 25.7834 0.358917 20.6477 0.119639C19.2471 0 18.7802 0 14.9284 0ZM14.9284 6.93906C10.9599 6.93906 7.69169 10.289 7.69169 14.3567C7.69169 18.4244 10.9599 21.7743 14.9284 21.7743C18.8969 21.7743 22.1651 18.4244 22.1651 14.3567C22.1651 10.289 18.8969 6.93906 14.9284 6.93906ZM14.9284 19.1422C12.3605 19.1422 10.2596 16.9887 10.2596 14.3567C10.2596 11.7246 12.3605 9.57112 14.9284 9.57112C17.4963 9.57112 19.5972 11.7246 19.5972 14.3567C19.5972 16.9887 17.4963 19.1422 14.9284 19.1422ZM22.3985 5.02484C21.4648 5.02484 20.7644 5.74267 20.7644 6.69978C20.7644 7.65689 21.4648 8.37473 22.3985 8.37473C23.3323 8.37473 24.0326 7.65689 24.0326 6.69978C24.0326 5.74267 23.3323 5.02484 22.3985 5.02484Z" fill="white"/>
</svg>
