<svg width="31" height="24" viewBox="0 0 31 24" fill="none" xmlns="http://www.w3.org/2000/svg">
<path d="M10.1949 23.912C21.2949 23.912 27.3651 15.0215 27.3651 7.3124C27.3651 7.0598 27.3598 6.8085 27.3477 6.55818C28.526 5.73474 29.5503 4.70691 30.3583 3.53742C29.277 4.00185 28.1135 4.3146 26.8928 4.45561C28.1386 3.73341 29.0954 2.59044 29.5467 1.22819C28.3805 1.8967 27.0891 2.38248 25.7149 2.64445C24.6132 1.51053 23.0449 0.80127 21.3096 0.80127C17.9766 0.80127 15.2739 3.41419 15.2739 6.63483C15.2739 7.09279 15.3271 7.53782 15.4301 7.96506C10.415 7.72152 5.96768 5.39968 2.99162 1.86985C2.47275 2.73177 2.17401 3.73373 2.17401 4.802C2.17401 6.82597 3.23952 8.61287 4.85969 9.6585C3.86979 9.62907 2.93977 9.3658 2.12651 8.92853C2.12517 8.95279 2.12517 8.97737 2.12517 9.00292C2.12517 11.8287 4.20567 14.1877 6.96662 14.7223C6.45979 14.8559 5.92654 14.9277 5.37588 14.9277C4.98715 14.9277 4.60912 14.8902 4.24146 14.8226C5.00956 17.1402 7.2376 18.8272 9.87912 18.8747C7.81334 20.4398 5.21129 21.3722 2.3841 21.3722C1.89735 21.3722 1.41695 21.3453 0.94458 21.2913C3.61521 22.946 6.7863 23.912 10.1949 23.912Z" fill="white"/>
</svg>
